<svg width="108" height="108" viewBox="0 0 108 108" fill="none" xmlns="http://www.w3.org/2000/svg">
<path d="M4 22.75V16.5C4 13.1848 5.31696 10.0054 7.66116 7.66116C10.0054 5.31696 13.1848 4 16.5 4H29M4 85.25V91.5C4 94.8152 5.31696 97.9946 7.66116 100.339C10.0054 102.683 13.1848 104 16.5 104H29M79 4H91.5C94.8152 4 97.9946 5.31696 100.339 7.66116C102.683 10.0054 104 13.1848 104 16.5V22.75M79 104H91.5C94.8152 104 97.9946 102.683 100.339 100.339C102.683 97.9946 104 94.8152 104 91.5V85.25" stroke="#E63D1F" stroke-width="7" stroke-linecap="round" stroke-linejoin="round"/>
<path d="M38.375 29V83.1667M29 29V38.5588C29 39.8141 29.2425 41.0571 29.7136 42.2168C30.1848 43.3766 30.8753 44.4303 31.7459 45.3179C32.6164 46.2056 33.6499 46.9097 34.7873 47.39C35.9248 47.8704 37.1439 48.1176 38.375 48.1176C39.6061 48.1176 40.8252 47.8704 41.9627 47.39C43.1001 46.9097 44.1336 46.2056 45.0041 45.3179C45.8747 44.4303 46.5652 43.3766 47.0364 42.2168C47.5075 41.0571 47.75 39.8141 47.75 38.5588V29M69.625 54.4902C67.1386 54.4902 64.754 53.1474 62.9959 50.7572C61.2377 48.3671 60.25 45.1253 60.25 41.7451C60.25 38.3649 61.2377 35.1231 62.9959 32.733C64.754 30.3428 67.1386 29 69.625 29C72.1114 29 74.496 30.3428 76.2541 32.733C78.0123 35.1231 79 38.3649 79 41.7451C79 45.1253 78.0123 48.3671 76.2541 50.7572C74.496 53.1474 72.1114 54.4902 69.625 54.4902ZM69.625 54.4902V83.1667" stroke="#E63D1F" stroke-width="7" stroke-linecap="round" stroke-linejoin="round"/>
</svg>
